<svg width="512" height="512" viewBox="0 0 512 512" role="img" xmlns="http://www.w3.org/2000/svg">
  <rect width="512" height="512" rx="90" fill="#0F1C2E"/>
  <g transform="translate(256, 256)">
    <path d="M-80,-120 L-90,-20 Q-90,60 0,90 Q90,60 90,-20 L80,-120 Z" fill="#F5C842"/>
    <rect x="-85" y="-135" width="170" height="22" rx="8" fill="#E6B830"/>
    <rect x="-18" y="90" width="36" height="50" rx="4" fill="#E6B830"/>
    <rect x="-65" y="138" width="130" height="22" rx="8" fill="#E6B830"/>
    <rect x="-75" y="156" width="150" height="14" rx="6" fill="#D4A820"/>
    <path d="M-80,-80 Q-130,-80 -130,-20 Q-130,20 -90,20" fill="none" stroke="#E6B830" stroke-width="18" stroke-linecap="round"/>
    <path d="M80,-80 Q130,-80 130,-20 Q130,20 90,20" fill="none" stroke="#E6B830" stroke-width="18" stroke-linecap="round"/>
    <polygon points="0,-70 10,-45 35,-45 16,-28 23,-3 0,-18 -23,-3 -16,-28 -35,-45 -10,-45" fill="#0F1C2E" opacity="0.25"/>
  </g>
</svg>
